<?xml version="1.0" encoding="UTF-8" standalone="no"?>
<!-- Created with Inkscape (http://www.inkscape.org/) -->

<svg
   width="48"
   height="48.000011"
   viewBox="0 0 48 48.000011"
   version="1.1"
   id="svg2750"
   inkscape:version="1.3.2 (091e20ef0f, 2023-11-25, custom)"
   sodipodi:docname="close.svg"
   xmlns:inkscape="http://www.inkscape.org/namespaces/inkscape"
   xmlns:sodipodi="http://sodipodi.sourceforge.net/DTD/sodipodi-0.dtd"
   xmlns:xlink="http://www.w3.org/1999/xlink"
   xmlns="http://www.w3.org/2000/svg"
   xmlns:svg="http://www.w3.org/2000/svg"
   xmlns:rdf="http://www.w3.org/1999/02/22-rdf-syntax-ns#"
   xmlns:cc="http://creativecommons.org/ns#"
   xmlns:dc="http://purl.org/dc/elements/1.1/">
  <sodipodi:namedview
     id="base"
     pagecolor="#d1d1d1"
     bordercolor="#666666"
     borderopacity="1.0"
     inkscape:pageopacity="0.0"
     inkscape:pageshadow="2"
     inkscape:zoom="6.03976"
     inkscape:cx="13.907837"
     inkscape:cy="45.862749"
     inkscape:document-units="px"
     inkscape:current-layer="layer1"
     showgrid="true"
     units="px"
     inkscape:pagecheckerboard="true"
     inkscape:showpageshadow="false"
     inkscape:window-width="1402"
     inkscape:window-height="821"
     inkscape:window-x="198"
     inkscape:window-y="137"
     inkscape:window-maximized="0"
     fit-margin-top="5"
     fit-margin-left="5"
     fit-margin-right="5"
     fit-margin-bottom="5"
     inkscape:snap-bbox="true"
     inkscape:snap-nodes="false"
     inkscape:bbox-paths="true"
     inkscape:bbox-nodes="true"
     inkscape:deskcolor="#d1d1d1"
     showguides="true">
    <inkscape:grid
       type="xygrid"
       id="grid834"
       originx="2.0000026"
       originy="-29.999993"
       spacingy="1"
       spacingx="1"
       units="px"
       visible="true" />
    <sodipodi:guide
       position="28.000002,19.999992"
       orientation="0,-1"
       id="guide1"
       inkscape:locked="false" />
    <sodipodi:guide
       position="12.000002,10.999992"
       orientation="1,0"
       id="guide2"
       inkscape:locked="false" />
  </sodipodi:namedview>
  <defs
     id="defs2744">
    <linearGradient
       id="linearGradient29"
       inkscape:collect="always">
      <stop
         style="stop-color:#2b0000;stop-opacity:1;"
         offset="0"
         id="stop23" />
      <stop
         style="stop-color:#750000;stop-opacity:1;"
         offset="1"
         id="stop29" />
    </linearGradient>
    <linearGradient
       id="linearGradient22"
       inkscape:collect="always">
      <stop
         style="stop-color:#ab4141;stop-opacity:1;"
         offset="0"
         id="stop20" />
      <stop
         style="stop-color:#8e0000;stop-opacity:1;"
         offset="0.71674544"
         id="stop21" />
      <stop
         style="stop-color:#9d0000;stop-opacity:1;"
         offset="1"
         id="stop22" />
    </linearGradient>
    <linearGradient
       id="linearGradient4"
       inkscape:collect="always">
      <stop
         style="stop-color:#380000;stop-opacity:1;"
         offset="0"
         id="stop5" />
      <stop
         style="stop-color:#9f170a;stop-opacity:1;"
         offset="1"
         id="stop6" />
    </linearGradient>
    <linearGradient
       id="linearGradient2"
       inkscape:collect="always">
      <stop
         style="stop-color:#c77971;stop-opacity:1;"
         offset="0"
         id="stop2" />
      <stop
         style="stop-color:#a0180b;stop-opacity:1;"
         offset="0.71674544"
         id="stop4" />
      <stop
         style="stop-color:#c43c30;stop-opacity:1;"
         offset="1"
         id="stop3" />
    </linearGradient>
    <linearGradient
       inkscape:collect="always"
       xlink:href="#linearGradient2"
       id="linearGradient3"
       x1="3.3041513"
       y1="289.74524"
       x2="3.3041513"
       y2="303.74524"
       gradientUnits="userSpaceOnUse"
       gradientTransform="matrix(1.0625,0,0,1.0714286,-0.20650951,-21.196097)" />
    <linearGradient
       inkscape:collect="always"
       xlink:href="#linearGradient4"
       id="linearGradient6"
       x1="5.304152"
       y1="289.74524"
       x2="5.304152"
       y2="303.74524"
       gradientUnits="userSpaceOnUse"
       gradientTransform="matrix(1.0625,0,0,1.0714286,-0.20650951,-21.196097)" />
    <linearGradient
       inkscape:collect="always"
       xlink:href="#linearGradient1722"
       id="linearGradient7"
       gradientUnits="userSpaceOnUse"
       gradientTransform="matrix(1.0625,0,0,1.0714286,23.793487,-21.196097)"
       x1="3.3041513"
       y1="289.74524"
       x2="3.3041513"
       y2="303.74524" />
    <linearGradient
       inkscape:collect="always"
       xlink:href="#linearGradient5066"
       id="linearGradient8"
       gradientUnits="userSpaceOnUse"
       gradientTransform="matrix(1.0625,0,0,1.0714286,23.793487,-21.196097)"
       x1="5.304152"
       y1="289.74524"
       x2="5.304152"
       y2="303.74524" />
    <linearGradient
       inkscape:collect="always"
       id="linearGradient5066">
      <stop
         style="stop-color:#3e0000;stop-opacity:1"
         offset="0"
         id="stop8" />
      <stop
         style="stop-color:#b11a0b;stop-opacity:1"
         offset="1"
         id="stop9" />
    </linearGradient>
    <linearGradient
       inkscape:collect="always"
       id="linearGradient1722">
      <stop
         style="stop-color:#dd867e;stop-opacity:1"
         offset="0"
         id="stop10" />
      <stop
         style="stop-color:#b21b0c;stop-opacity:1"
         offset="0.71674544"
         id="stop11" />
      <stop
         style="stop-color:#da4335;stop-opacity:1"
         offset="1"
         id="stop12" />
    </linearGradient>
    <linearGradient
       id="linearGradient26"
       inkscape:collect="always">
      <stop
         style="stop-color:#dbdde0;stop-opacity:1;"
         offset="0"
         id="stop24" />
      <stop
         style="stop-color:#b7bbc3;stop-opacity:1;"
         offset="0.48903063"
         id="stop25" />
      <stop
         style="stop-color:#b2b5bd;stop-opacity:1;"
         offset="1"
         id="stop26" />
    </linearGradient>
    <linearGradient
       id="linearGradient28"
       inkscape:collect="always">
      <stop
         style="stop-color:#888d97;stop-opacity:1;"
         offset="0"
         id="stop27" />
      <stop
         style="stop-color:#5f646e;stop-opacity:1;"
         offset="1"
         id="stop28" />
    </linearGradient>
    <linearGradient
       inkscape:collect="always"
       xlink:href="#linearGradient26"
       id="linearGradient15"
       gradientUnits="userSpaceOnUse"
       gradientTransform="matrix(1.0625,0,0,1.0714286,-0.20650951,-21.196097)"
       x1="3.3041513"
       y1="289.74524"
       x2="3.3041513"
       y2="303.74524" />
    <linearGradient
       inkscape:collect="always"
       xlink:href="#linearGradient28"
       id="linearGradient16"
       gradientUnits="userSpaceOnUse"
       gradientTransform="matrix(1.0625,0,0,1.0714286,-0.20650951,-21.196097)"
       x1="5.304152"
       y1="289.74524"
       x2="5.304152"
       y2="303.74524" />
    <linearGradient
       inkscape:collect="always"
       xlink:href="#linearGradient22"
       id="linearGradient19"
       gradientUnits="userSpaceOnUse"
       gradientTransform="matrix(1.0625,0,0,1.0714286,-0.20650951,-21.196097)"
       x1="3.3041513"
       y1="289.74524"
       x2="3.3041513"
       y2="303.74524" />
    <linearGradient
       inkscape:collect="always"
       xlink:href="#linearGradient29"
       id="linearGradient20"
       gradientUnits="userSpaceOnUse"
       gradientTransform="matrix(1.0625,0,0,1.0714286,-0.20650951,-21.196097)"
       x1="5.304152"
       y1="289.74524"
       x2="5.304152"
       y2="303.74524" />
  </defs>
  <metadata
     id="metadata2747">
    <rdf:RDF>
      <cc:Work
         rdf:about="">
        <dc:format>image/svg+xml</dc:format>
        <dc:type
           rdf:resource="http://purl.org/dc/dcmitype/StillImage" />
      </cc:Work>
    </rdf:RDF>
  </metadata>
  <g
     inkscape:label="Layer 1"
     inkscape:groupmode="layer"
     id="layer1"
     transform="translate(8.6958506,-284.74524)">
    <g
       id="active-center">
      <rect
         style="fill:none;stroke-width:6;paint-order:stroke fill markers"
         id="rect1"
         width="24"
         height="24"
         x="-8.6958475"
         y="284.74524" />
      <rect
         style="fill:#cccfd5;fill-opacity:1;stroke:none;stroke-width:1;stroke-dasharray:none;stroke-opacity:1;paint-order:stroke fill markers"
         id="rect9"
         width="17.999998"
         height="6.9999809"
         x="-5.6958466"
         y="298.74518"
         ry="2.4131098"
         rx="2.4131098" />
      <rect
         style="fill:url(#linearGradient3);stroke:url(#linearGradient6);stroke-width:0.999999;stroke-dasharray:none;stroke-opacity:1;paint-order:stroke fill markers"
         id="rect2"
         width="17"
         height="15"
         x="-5.1958475"
         y="289.24524"
         ry="1.9999999"
         rx="2" />
      <path
         id="path1"
         style="fill:#710000;fill-opacity:1;stroke:#710000;stroke-width:1;stroke-dasharray:none;stroke-opacity:1;paint-order:stroke fill markers"
         d="m -0.6958506,293.74525 v 0.8 l 1.59999991,1.6 1.60000009,1.6 -1.60000009,1.6 -1.59999991,1.6 v 0.8 h 0.79999997 l 1.59999993,-1.6 1.6,-1.6 1.5999999,1.6 1.6000001,1.6 h 0.7999999 v -0.8 l -1.6,-1.6 -1.5999999,-1.6 1.5999999,-1.6 1.6,-1.6 v -0.8 H 6.5041493 l -1.6000001,1.6 -1.5999999,1.6 -1.6,-1.6 -1.59999993,-1.6 z" />
      <path
         id="rect3"
         style="fill:#ffffff;fill-opacity:1;stroke:#ffffff;stroke-width:1;stroke-dasharray:none;stroke-opacity:1;paint-order:stroke fill markers"
         d="m -0.6958506,292.74525 v 0.8 l 1.59999991,1.6 1.60000009,1.6 -1.60000009,1.6 -1.59999991,1.6 v 0.8 h 0.79999997 l 1.59999993,-1.6 1.6,-1.6 1.5999999,1.6 1.6000001,1.6 h 0.7999999 v -0.8 l -1.6,-1.6 -1.5999999,-1.6 1.5999999,-1.6 1.6,-1.6 v -0.8 H 6.5041493 l -1.6000001,1.6 -1.5999999,1.6 -1.6,-1.6 -1.59999993,-1.6 z" />
    </g>
    <g
       id="hover-center">
      <rect
         style="fill:none;stroke-width:6;paint-order:stroke fill markers"
         id="rect4"
         width="24"
         height="24"
         x="15.30415"
         y="284.74524" />
      <rect
         style="fill:#cccfd5;fill-opacity:1;stroke:none;stroke-width:1;stroke-dasharray:none;stroke-opacity:1;paint-order:stroke fill markers"
         id="rect5"
         width="17.999998"
         height="6.9999809"
         x="18.30415"
         y="298.74518"
         ry="2.4131098"
         rx="2.4131098" />
      <rect
         style="fill:url(#linearGradient7);stroke:url(#linearGradient8);stroke-width:0.999999;stroke-dasharray:none;stroke-opacity:1;paint-order:stroke fill markers"
         id="rect6"
         width="17"
         height="15"
         x="18.80415"
         y="289.24524"
         ry="1.9999999"
         rx="2" />
      <path
         id="path6"
         style="fill:#710000;fill-opacity:1;stroke:#710000;stroke-width:1;stroke-dasharray:none;stroke-opacity:1;paint-order:stroke fill markers"
         d="m 23.304146,293.74525 v 0.8 l 1.6,1.6 1.6,1.6 -1.6,1.6 -1.6,1.6 v 0.8 h 0.8 l 1.6,-1.6 1.6,-1.6 1.6,1.6 1.6,1.6 h 0.8 v -0.8 l -1.6,-1.6 -1.6,-1.6 1.6,-1.6 1.6,-1.6 v -0.8 h -0.8 l -1.6,1.6 -1.6,1.6 -1.6,-1.6 -1.6,-1.6 z" />
      <path
         id="path7"
         style="fill:#ffffff;fill-opacity:1;stroke:#ffffff;stroke-width:1;stroke-dasharray:none;stroke-opacity:1;paint-order:stroke fill markers"
         d="m 23.304146,292.74525 v 0.8 l 1.6,1.6 1.6,1.6 -1.6,1.6 -1.6,1.6 v 0.8 h 0.8 l 1.6,-1.6 1.6,-1.6 1.6,1.6 1.6,1.6 h 0.8 v -0.8 l -1.6,-1.6 -1.6,-1.6 1.6,-1.6 1.6,-1.6 v -0.8 h -0.8 l -1.6,1.6 -1.6,1.6 -1.6,-1.6 -1.6,-1.6 z" />
    </g>
    <g
       id="inactive-center"
       transform="translate(-3.0887085e-6,24.000011)">
      <rect
         style="fill:none;stroke-width:6;paint-order:stroke fill markers"
         id="rect12"
         width="24"
         height="24"
         x="-8.6958475"
         y="284.74524" />
      <rect
         style="fill:url(#linearGradient15);stroke:url(#linearGradient16);stroke-width:0.999999;stroke-dasharray:none;paint-order:stroke fill markers"
         id="rect14"
         width="17"
         height="15"
         x="-5.1958475"
         y="289.24524"
         ry="1.9999999"
         rx="2" />
      <path
         id="path15"
         style="fill:#64686e;fill-opacity:1;stroke:#64686e;stroke-width:1;stroke-dasharray:none;stroke-opacity:1;paint-order:stroke fill markers"
         d="m -0.6958506,292.74525 v 0.8 l 1.59999991,1.6 1.60000009,1.6 -1.60000009,1.6 -1.59999991,1.6 v 0.8 h 0.79999997 l 1.59999993,-1.6 1.6,-1.6 1.5999999,1.6 1.6000001,1.6 h 0.7999999 v -0.8 l -1.6,-1.6 -1.5999999,-1.6 1.5999999,-1.6 1.6,-1.6 v -0.8 H 6.5041493 l -1.6000001,1.6 -1.5999999,1.6 -1.6,-1.6 -1.59999993,-1.6 z" />
    </g>
    <g
       id="pressed-center"
       transform="translate(23.999997,24.000011)">
      <rect
         style="fill:none;stroke-width:6;paint-order:stroke fill markers"
         id="rect16"
         width="24"
         height="24"
         x="-8.6958475"
         y="284.74524" />
      <rect
         style="fill:#cccfd5;fill-opacity:1;stroke:none;stroke-width:1;stroke-dasharray:none;stroke-opacity:1;paint-order:stroke fill markers"
         id="rect17"
         width="17.999998"
         height="6.9999809"
         x="-5.6958466"
         y="298.74518"
         ry="2.4131098"
         rx="2.4131098" />
      <rect
         style="fill:url(#linearGradient19);stroke:url(#linearGradient20);stroke-width:0.999999;stroke-dasharray:none;stroke-opacity:1;paint-order:stroke fill markers"
         id="rect18"
         width="17"
         height="15"
         x="-5.1958475"
         y="289.24524"
         ry="1.9999999"
         rx="2" />
      <path
         id="path18"
         style="fill:#710000;fill-opacity:1;stroke:#710000;stroke-width:1;stroke-dasharray:none;stroke-opacity:1;paint-order:stroke fill markers"
         d="m -0.6958506,293.74525 v 0.8 l 1.59999991,1.6 1.60000009,1.6 -1.60000009,1.6 -1.59999991,1.6 v 0.8 h 0.79999997 l 1.59999993,-1.6 1.6,-1.6 1.5999999,1.6 1.6000001,1.6 h 0.7999999 v -0.8 l -1.6,-1.6 -1.5999999,-1.6 1.5999999,-1.6 1.6,-1.6 v -0.8 H 6.5041493 l -1.6000001,1.6 -1.5999999,1.6 -1.6,-1.6 -1.59999993,-1.6 z" />
      <path
         id="path19"
         style="fill:#ffffff;fill-opacity:1;stroke:#ffffff;stroke-width:1;stroke-dasharray:none;stroke-opacity:1;paint-order:stroke fill markers"
         d="m -0.6958506,292.74525 v 0.8 l 1.59999991,1.6 1.60000009,1.6 -1.60000009,1.6 -1.59999991,1.6 v 0.8 h 0.79999997 l 1.59999993,-1.6 1.6,-1.6 1.5999999,1.6 1.6000001,1.6 h 0.7999999 v -0.8 l -1.6,-1.6 -1.5999999,-1.6 1.5999999,-1.6 1.6,-1.6 v -0.8 H 6.5041493 l -1.6000001,1.6 -1.5999999,1.6 -1.6,-1.6 -1.59999993,-1.6 z" />
    </g>
  </g>
</svg>
