<?xml version="1.0" encoding="UTF-8" standalone="no"?>
<!-- Created with Inkscape (http://www.inkscape.org/) -->

<svg
   xmlns:osb="http://www.openswatchbook.org/uri/2009/osb"
   xmlns:dc="http://purl.org/dc/elements/1.1/"
   xmlns:cc="http://creativecommons.org/ns#"
   xmlns:rdf="http://www.w3.org/1999/02/22-rdf-syntax-ns#"
   xmlns:svg="http://www.w3.org/2000/svg"
   xmlns="http://www.w3.org/2000/svg"
   xmlns:xlink="http://www.w3.org/1999/xlink"
   xmlns:sodipodi="http://sodipodi.sourceforge.net/DTD/sodipodi-0.dtd"
   xmlns:inkscape="http://www.inkscape.org/namespaces/inkscape"
   id="svg2"
   height="128"
   version="1.0"
   width="128"
   inkscape:version="0.92.5 (2060ec1f9f, 2020-04-08)"
   sodipodi:docname="containment-controls.svg"
   viewBox="0 0 128 128">
  <defs
     id="defs96">
    <linearGradient
       id="Centre-3"
       osb:paint="solid">
      <stop
         style="stop-color:#1a1a1a;stop-opacity:0.48627451;"
         offset="0"
         id="stop4319" />
    </linearGradient>
    <linearGradient
       inkscape:collect="always"
       xlink:href="#Centre-3"
       id="linearGradient4323"
       x1="80"
       y1="110.5"
       x2="86"
       y2="110.5"
       gradientUnits="userSpaceOnUse"
       gradientTransform="translate(3.7601479,50.206061)" />
    <linearGradient
       inkscape:collect="always"
       xlink:href="#Centre-3"
       id="linearGradient5107"
       x1="96"
       y1="110.5"
       x2="102"
       y2="110.5"
       gradientUnits="userSpaceOnUse"
       gradientTransform="translate(-1.8267366,52.139983)" />
    <linearGradient
       inkscape:collect="always"
       xlink:href="#Centre-3"
       id="linearGradient4318"
       x1="103.66129"
       y1="103.62017"
       x2="108.66129"
       y2="103.62017"
       gradientUnits="userSpaceOnUse"
       gradientTransform="translate(6.33871,61.37983)" />
    <linearGradient
       inkscape:collect="always"
       xlink:href="#Centre-3"
       id="linearGradient4324"
       x1="99.223206"
       y1="90.421936"
       x2="104.2232"
       y2="90.421936"
       gradientUnits="userSpaceOnUse"
       gradientTransform="translate(6.33871,61.37983)" />
  </defs>
  <sodipodi:namedview
     pagecolor="#ffffff"
     bordercolor="#666666"
     borderopacity="1"
     objecttolerance="10"
     gridtolerance="10"
     guidetolerance="10"
     inkscape:pageopacity="0"
     inkscape:pageshadow="2"
     inkscape:window-width="640"
     inkscape:window-height="480"
     inkscape:document-units="px"
     id="namedview94"
     showgrid="false"
     inkscape:pagecheckerboard="true"
     inkscape:zoom="2.3268783"
     inkscape:cx="2.6958503"
     inkscape:cy="57.927717"
     inkscape:current-layer="svg2"
     inkscape:showpageshadow="false">
    <inkscape:grid
       type="xygrid"
       id="grid882" />
  </sodipodi:namedview>
  <metadata
     id="metadata7">
    <rdf:RDF>
      <cc:Work
         rdf:about="">
        <dc:format>image/svg+xml</dc:format>
        <dc:type
           rdf:resource="http://purl.org/dc/dcmitype/StillImage" />
        <dc:title></dc:title>
      </cc:Work>
    </rdf:RDF>
  </metadata>
  <rect
     style="opacity:0.65;fill:#0000ff"
     width="5.2207999"
     height="5.4025998"
     x="-10"
     y="0"
     id="hint-stretch-borders" />
  <text
     xml:space="preserve"
     style="font-weight:bold;font-size:14px;line-height:0%;font-family:'Gill Sans';text-align:justify;fill:#000000"
     x="-200"
     y="284"
     font-weight="bold"
     font-size="14px"
     line-height="125%"
     id="text6990"><tspan
       y="284"
       x="-200"
       id="tspan6992" /></text>
  <text
     xml:space="preserve"
     style="font-weight:bold;font-size:14px;line-height:0%;font-family:'Gill Sans';text-align:justify;fill:#000000"
     x="-176.72227"
     y="268.58057"
     font-weight="bold"
     font-size="14px"
     line-height="125%"
     id="text2705"><tspan
       y="268.58057"
       x="-176.72227"
       id="tspan2707" /></text>
  <g
     id="vertical-centerindicator"
     transform="translate(64,150)">
    <rect
       style="fill:#cdcdcd;fill-opacity:1"
       width="42"
       height="1"
       x="11"
       y="32"
       id="rect4223" />
    <rect
       style="fill-opacity:0"
       width="42"
       height="1"
       x="11"
       y="33"
       id="rect4209" />
    <rect
       style="fill-opacity:0"
       width="42"
       height="1"
       x="11"
       y="31"
       id="rect2706" />
  </g>
  <g
     id="horizontal-centerindicator"
     transform="translate(83,22)">
    <rect
       style="fill:#9c8e78;fill-opacity:1"
       width="42"
       height="1"
       transform="rotate(-90)"
       x="-31"
       y="8"
       id="rect4227" />
    <rect
       style="fill-opacity:0"
       width="42"
       height="1"
       transform="rotate(-90)"
       x="-31"
       y="9"
       id="rect4229" />
    <rect
       style="fill-opacity:0"
       width="42"
       height="1"
       x="-31"
       transform="rotate(-90)"
       y="7"
       id="rect2721" />
  </g>
  <path
     style="fill:url(#linearGradient4323);fill-opacity:1"
     inkscape:connector-curvature="0"
     d="m 83.760148,158.20606 h 6 v 5 h -6 z"
     id="south-center" />
  <path
     style="fill:url(#linearGradient5107);fill-opacity:1"
     inkscape:connector-curvature="0"
     d="m 94.173263,160.13998 h 5.999997 v 5 h -5.999997 z"
     id="north-center" />
  <path
     style="fill:url(#linearGradient4318);fill-opacity:1"
     inkscape:connector-curvature="0"
     d="m 115,162 v 6 h -5 v -6 z"
     id="west-center" />
  <path
     style="fill:url(#linearGradient4324);fill-opacity:1"
     inkscape:connector-curvature="0"
     d="m 110.56191,148.80177 v 6 h -5 v -6 z"
     id="east-center" />
  <g
     transform="translate(-185.9995,25.812)"
     id="south-maxslider">
    <path
       inkscape:connector-curvature="0"
       transform="translate(202,50)"
       style="color:#000000;text-indent:0;text-decoration:none;text-decoration-line:none;text-transform:none;fill:#9c8e78;fill-opacity:1"
       d="m 18,1 c -0.554,0 -1,0.446 -1,1 v 5.125 l -5,-5 a 0.50005,0.50005 0 0 0 -0.4375,-0.15625 0.50005,0.50005 0 0 0 -0.0625,0 0.50005,0.50005 0 0 0 -0.1875,0.84375 L 15.5005,7 h -12 c -0.277,0 -0.5,0.223 -0.5,0.5 0,0.277 0.223,0.5 0.5,0.5 h 11.938 l -4.125,4.125 a 0.50005,0.50005 0 1 0 0.687,0.687 l 5,-5 V 13 c 0,0.554 0.446,1 1,1 0.554,0 1,-0.446 1,-1 V 2 c 0,-0.554 -0.446,-1 -1,-1 z"
       id="path3872" />
    <rect
       style="fill-opacity:0"
       width="36"
       height="15"
       transform="translate(202,50)"
       x="0"
       y="-1e-06"
       ry="0"
       id="rect3884" />
  </g>
  <g
     transform="rotate(180,127.00025,80.406)"
     id="south-minslider">
    <path
       inkscape:connector-curvature="0"
       style="color:#000000;text-indent:0;text-decoration:none;text-decoration-line:none;text-transform:none;fill:#9c8e78;fill-opacity:1"
       transform="translate(202,50)"
       d="m 18,1 c -0.554,0 -1,0.446 -1,1 v 5.125 l -5,-5 a 0.50005,0.50005 0 0 0 -0.4375,-0.15625 0.50005,0.50005 0 0 0 -0.0625,0 0.50005,0.50005 0 0 0 -0.1875,0.84375 L 15.5005,7 h -12 c -0.277,0 -0.5,0.223 -0.5,0.5 0,0.277 0.223,0.5 0.5,0.5 h 11.938 l -4.125,4.125 a 0.50005,0.50005 0 1 0 0.687,0.687 l 5,-5 V 13 c 0,0.554 0.446,1 1,1 0.554,0 1,-0.446 1,-1 V 2 c 0,-0.554 -0.446,-1 -1,-1 z"
       id="path3898" />
    <rect
       style="fill-opacity:0"
       width="36"
       height="15"
       x="0"
       transform="translate(202,50)"
       y="-1e-06"
       ry="0"
       id="rect3900" />
  </g>
  <g
     transform="translate(-125.9995,25.812)"
     id="north-maxslider">
    <path
       inkscape:connector-curvature="0"
       style="color:#000000;text-indent:0;text-decoration:none;text-decoration-line:none;text-transform:none;fill:#9c8e78;fill-opacity:1"
       transform="translate(202,50)"
       d="m 18,1 c -0.554,0 -1,0.446 -1,1 v 5.125 l -5,-5 a 0.50005,0.50005 0 0 0 -0.4375,-0.15625 0.50005,0.50005 0 0 0 -0.0625,0 0.50005,0.50005 0 0 0 -0.1875,0.84375 L 15.5005,7 h -12 c -0.277,0 -0.5,0.223 -0.5,0.5 0,0.277 0.223,0.5 0.5,0.5 h 11.938 l -4.125,4.125 a 0.50005,0.50005 0 1 0 0.687,0.687 l 5,-5 V 13 c 0,0.554 0.446,1 1,1 0.554,0 1,-0.446 1,-1 V 2 c 0,-0.554 -0.446,-1 -1,-1 z"
       id="path3916" />
    <rect
       style="fill-opacity:0"
       width="36"
       height="15"
       x="0"
       transform="translate(202,50)"
       y="-1e-06"
       ry="0"
       id="rect3918" />
  </g>
  <g
     transform="rotate(180,157.00025,80.406)"
     id="north-minslider">
    <path
       inkscape:connector-curvature="0"
       transform="translate(202,50)"
       style="color:#000000;text-indent:0;text-decoration:none;text-decoration-line:none;text-transform:none;fill:#9c8e78;fill-opacity:1"
       d="m 18,1 c -0.554,0 -1,0.446 -1,1 v 5.125 l -5,-5 a 0.50005,0.50005 0 0 0 -0.4375,-0.15625 0.50005,0.50005 0 0 0 -0.0625,0 0.50005,0.50005 0 0 0 -0.1875,0.84375 L 15.5005,7 h -12 c -0.277,0 -0.5,0.223 -0.5,0.5 0,0.277 0.223,0.5 0.5,0.5 h 11.938 l -4.125,4.125 a 0.50005,0.50005 0 1 0 0.687,0.687 l 5,-5 V 13 c 0,0.554 0.446,1 1,1 0.554,0 1,-0.446 1,-1 V 2 c 0,-0.554 -0.446,-1 -1,-1 z"
       id="path3922" />
    <rect
       style="fill-opacity:0"
       width="36"
       height="15"
       transform="translate(202,50)"
       x="0"
       y="-1e-06"
       ry="0"
       id="rect3924" />
  </g>
  <g
     transform="rotate(90,47.712,-12.528)"
     id="west-offsetslider">
    <path
       style="fill:#eaeaea"
       inkscape:connector-curvature="0"
       d="m 215,49 c -1.108,0 -2,0.892 -2,2 v 7 l 7,7 7,-7 v -7 c 0,-1.108 -0.892,-2 -2,-2 z"
       id="path3934" />
    <rect
       style="fill-opacity:0"
       width="28"
       height="19"
       x="0"
       transform="translate(206,48)"
       y="-1e-06"
       id="rect3936" />
  </g>
  <g
     transform="rotate(90,44.712,-27.028)"
     id="west-maxslider">
    <path
       inkscape:connector-curvature="0"
       style="color:#000000;text-indent:0;text-decoration:none;text-decoration-line:none;text-transform:none;fill:#eaeaea"
       transform="translate(202,50)"
       d="m 18,1 c -0.554,0 -1,0.446 -1,1 v 5.125 l -5,-5 a 0.50005,0.50005 0 0 0 -0.4375,-0.15625 0.50005,0.50005 0 0 0 -0.0625,0 0.50005,0.50005 0 0 0 -0.1875,0.84375 L 15.5005,7 h -12 c -0.277,0 -0.5,0.223 -0.5,0.5 0,0.277 0.223,0.5 0.5,0.5 h 11.938 l -4.125,4.125 a 0.50005,0.50005 0 1 0 0.687,0.687 l 5,-5 V 13 c 0,0.554 0.446,1 1,1 0.554,0 1,-0.446 1,-1 V 2 c 0,-0.554 -0.446,-1 -1,-1 z"
       id="path3940" />
    <rect
       style="fill-opacity:0"
       width="36"
       height="15"
       x="0"
       transform="translate(202,50)"
       y="-1e-06"
       ry="0"
       id="rect3942" />
  </g>
  <g
     transform="rotate(-90,145.472,242.788)"
     id="west-minslider">
    <path
       inkscape:connector-curvature="0"
       transform="translate(202,50)"
       style="color:#000000;text-indent:0;text-decoration:none;text-decoration-line:none;text-transform:none;fill:#eaeaea"
       d="m 18,1 c -0.554,0 -1,0.446 -1,1 v 5.125 l -5,-5 a 0.50005,0.50005 0 0 0 -0.4375,-0.15625 0.50005,0.50005 0 0 0 -0.0625,0 0.50005,0.50005 0 0 0 -0.1875,0.84375 L 15.5005,7 h -12 c -0.277,0 -0.5,0.223 -0.5,0.5 0,0.277 0.223,0.5 0.5,0.5 h 11.938 l -4.125,4.125 a 0.50005,0.50005 0 1 0 0.687,0.687 l 5,-5 V 13 c 0,0.554 0.446,1 1,1 0.554,0 1,-0.446 1,-1 V 2 c 0,-0.554 -0.446,-1 -1,-1 z"
       id="path3946" />
    <rect
       style="fill-opacity:0"
       width="36"
       height="15"
       transform="translate(202,50)"
       x="0"
       y="-1e-06"
       ry="0"
       id="rect3948" />
  </g>
  <g
     transform="matrix(0,1,1,0,-39.316,-60.24)"
     id="east-offsetslider">
    <path
       style="fill:#eaeaea"
       inkscape:connector-curvature="0"
       d="m 215,49 c -1.108,0 -2,0.892 -2,2 v 7 l 7,7 7,-7 v -7 c 0,-1.108 -0.892,-2 -2,-2 z"
       id="path3952" />
    <rect
       style="fill-opacity:0"
       width="28"
       height="19"
       transform="translate(206,48)"
       x="0"
       y="-1e-06"
       id="rect3954" />
  </g>
  <g
     transform="matrix(0,1,1,0,-21.816,-71.74)"
     id="east-maxslider">
    <path
       inkscape:connector-curvature="0"
       transform="translate(202,50)"
       style="color:#000000;text-indent:0;text-decoration:none;text-decoration-line:none;text-transform:none;fill:#eaeaea"
       d="m 18,1 c -0.554,0 -1,0.446 -1,1 v 5.125 l -5,-5 a 0.50005,0.50005 0 0 0 -0.4375,-0.15625 0.50005,0.50005 0 0 0 -0.0625,0 0.50005,0.50005 0 0 0 -0.1875,0.84375 L 15.5005,7 h -12 c -0.277,0 -0.5,0.223 -0.5,0.5 0,0.277 0.223,0.5 0.5,0.5 h 11.938 l -4.125,4.125 a 0.50005,0.50005 0 1 0 0.687,0.687 l 5,-5 V 13 c 0,0.554 0.446,1 1,1 0.554,0 1,-0.446 1,-1 V 2 c 0,-0.554 -0.446,-1 -1,-1 z"
       id="path3958" />
    <rect
       style="fill-opacity:0"
       width="36"
       height="15"
       transform="translate(202,50)"
       x="0"
       y="-1e-06"
       ry="0"
       id="rect3960" />
  </g>
  <g
     transform="matrix(0,-1,-1,0,93.184,388.26)"
     id="east-minslider">
    <path
       inkscape:connector-curvature="0"
       style="color:#000000;text-indent:0;text-decoration:none;text-decoration-line:none;text-transform:none;fill:#eaeaea"
       transform="translate(202,50)"
       d="m 18,1 c -0.554,0 -1,0.446 -1,1 v 5.125 l -5,-5 a 0.50005,0.50005 0 0 0 -0.4375,-0.15625 0.50005,0.50005 0 0 0 -0.0625,0 0.50005,0.50005 0 0 0 -0.1875,0.84375 L 15.5005,7 h -12 c -0.277,0 -0.5,0.223 -0.5,0.5 0,0.277 0.223,0.5 0.5,0.5 h 11.938 l -4.125,4.125 a 0.50005,0.50005 0 1 0 0.687,0.687 l 5,-5 V 13 c 0,0.554 0.446,1 1,1 0.554,0 1,-0.446 1,-1 V 2 c 0,-0.554 -0.446,-1 -1,-1 z"
       id="path3964" />
    <rect
       style="fill-opacity:0"
       width="36"
       height="15"
       x="0"
       transform="translate(202,50)"
       y="-1e-06"
       ry="0"
       id="rect3966" />
  </g>
  <g
     id="south-offsetslider"
     transform="translate(79,-17.054688)">
    <rect
       style="fill:none;fill-opacity:0.3982301;stroke-width:0.99999994"
       width="28"
       height="18"
       x="-53"
       y="56.000004"
       id="rect3089" />
    <path
       style="opacity:1;fill:#9c8e78;fill-opacity:1;stroke:none;stroke-width:22;stroke-miterlimit:4;stroke-dasharray:none;stroke-opacity:1"
       d="m -44.214844,56 v 9.054688 h 0.05469 l 5.0625,7.945312 5.0625,-7.945312 H -34 V 65 56 Z"
       id="rect880"
       inkscape:connector-curvature="0" />
  </g>
  <g
     transform="translate(79.179688,-47.054688)"
     id="north-offsetslider">
    <rect
       id="rect1462"
       y="56.000004"
       x="-53"
       height="18"
       width="28"
       style="fill:none;fill-opacity:0.3982301;stroke-width:0.99999994" />
    <path
       inkscape:connector-curvature="0"
       id="path1464"
       d="m -44.214844,56 v 9.054688 h 0.05469 l 5.0625,7.945312 5.0625,-7.945312 H -34 V 65 56 Z"
       style="opacity:1;fill:#9c8e78;fill-opacity:1;stroke:none;stroke-width:22;stroke-miterlimit:4;stroke-dasharray:none;stroke-opacity:1" />
  </g>
</svg>
